<?xml version="1.0" encoding="UTF-8" standalone="no"?>
<svg
	xmlns:dc="http://purl.org/dc/elements/1.1/"
	xmlns:cc="http://creativecommons.org/ns#"
	xmlns:rdf="http://www.w3.org/1999/02/22-rdf-syntax-ns#"
	xmlns:svg="http://www.w3.org/2000/svg"
	xmlns="http://www.w3.org/2000/svg"
	xmlns:xlink="http://www.w3.org/1999/xlink"
	xmlns:sodipodi="http://sodipodi.sourceforge.net/DTD/sodipodi-0.dtd"
	xmlns:inkscape="http://www.inkscape.org/namespaces/inkscape"
	xml:space="preserve"
	width="25.7095mm"
	height="25.7095mm"
	style="shape-rendering:geometricPrecision; text-rendering:geometricPrecision; image-rendering:optimizeQuality; fill-rule:evenodd; clip-rule:evenodd"
	viewBox="0 0 4.58165 4.58165"
	id="svg2"
	version="1.1"
	inkscape:version="0.48.3.1 r9886"
	sodipodi:docname="1704.svg">
	<metadata
		id="metadata41">
		<rdf:RDF>
			<cc:Work
				rdf:about="">
				<dc:format>image/svg+xml</dc:format>
				<dc:type
					rdf:resource="http://purl.org/dc/dcmitype/StillImage" />
			</cc:Work>
		</rdf:RDF>
	</metadata>
	<sodipodi:namedview
		pagecolor="#ffffff"
		bordercolor="#666666"
		borderopacity="1"
		objecttolerance="10"
		gridtolerance="10"
		guidetolerance="10"
		inkscape:pageopacity="0"
		inkscape:pageshadow="2"
		inkscape:window-width="1440"
		inkscape:window-height="844"
		id="namedview39"
		showgrid="false"
		inkscape:zoom="2.0000001"
		inkscape:cx="91.666431"
		inkscape:cy="95.036402"
		inkscape:window-x="-4"
		inkscape:window-y="-4"
		inkscape:window-maximized="1"
		inkscape:current-layer="svg2" />
	<defs
		id="defs4">
		<linearGradient
			inkscape:collect="always"
			id="linearGradient3027">
			<stop
				style="stop-color:#ffffff;stop-opacity:1"
				offset="0"
				id="stop3029" />
			<stop
				style="stop-color:#cccccc;stop-opacity:0;"
				offset="1"
				id="stop3031" />
		</linearGradient>
		<style
			type="text/css"
			id="style6">
   
    .str0 {stroke:#B2B2B2;stroke-width:0.0135795}
    .fil4 {fill:white}
    .fil2 {fill:#B2B2B2}
    .fil3 {fill:#CCCCCC}
    .fil0 {fill:url(#id0)}
    .fil1 {fill:url(#id1)}
   
  </style>
		<linearGradient
			id="id0"
			gradientUnits="userSpaceOnUse"
			x1="3.62588"
			y1="0.721245"
			x2="0.955768"
			y2="3.86041">
			<stop
				offset="0"
				style="stop-color:#333333"
				id="stop9" />
			<stop
				offset="0.509804"
				style="stop-color:white"
				id="stop11" />
			<stop
				offset="1"
				style="stop-color:#191919"
				id="stop13" />
		</linearGradient>
		<linearGradient
			id="id1"
			gradientUnits="userSpaceOnUse"
			x1="1.45286"
			y1="1.38035"
			x2="3.12879"
			y2="3.20132">
			<stop
				offset="0"
				style="stop-color:#E5E5E5"
				id="stop16" />
			<stop
				offset="0.25098"
				style="stop-color:black"
				id="stop18" />
			<stop
				offset="0.631373"
				style="stop-color:black"
				id="stop20" />
			<stop
				offset="1"
				style="stop-color:white"
				id="stop22" />
		</linearGradient>
		<linearGradient
			inkscape:collect="always"
			xlink:href="#linearGradient3027"
			id="linearGradient3033"
			x1="1.1842401"
			y1="1.3492571"
			x2="1.6889981"
			y2="2.1889026"
			gradientUnits="userSpaceOnUse" />
	</defs>
	<circle
		sodipodi:ry="2.28404"
		sodipodi:rx="2.28404"
		sodipodi:cy="2.2908299"
		sodipodi:cx="2.2908299"
		style="fill:url(#id0);stroke:#b2b2b2;stroke-width:0.0135795"
		id="circle26"
		r="2.28404"
		cy="2.2908299"
		cx="2.2908299"
		class="fil0 str0" />
	<circle
		sodipodi:ry="1.75146"
		sodipodi:rx="1.75146"
		sodipodi:cy="2.2908299"
		sodipodi:cx="2.2908299"
		style="fill:url(#id1)"
		id="circle28"
		r="1.75146"
		cy="2.2908299"
		cx="2.2908299"
		class="fil1" />
	<g
		id="dark"
		inkscape:label="#g3007"
		style="fill:#aa0000">
		<circle
			class="fil2"
			cx="2.2908299"
			cy="2.2908299"
			r="1.69742"
			id="circle30"
			sodipodi:cx="2.2908299"
			sodipodi:cy="2.2908299"
			sodipodi:rx="1.69742"
			sodipodi:ry="1.69742"
			style="fill:#aa0000" />
	</g>
	<g
		id="light"
		inkscape:label="#g3004"
		transform="matrix(1.0114605,0,0,1.0114605,-0.02625418,-0.02625418)"
		style="fill:#d40000">
		<circle
			class="fil3"
			cx="2.2908499"
			cy="2.2908499"
			r="1.49991"
			id="circle32"
			sodipodi:cx="2.2908499"
			sodipodi:cy="2.2908499"
			sodipodi:rx="1.49991"
			sodipodi:ry="1.49991"
			style="fill:#d40000"
			d="m 3.7907599,2.2908499 c 0,0.8283774 -0.6715326,1.49991 -1.49991,1.49991 -0.8283774,0 -1.49990997,-0.6715326 -1.49990997,-1.49991 0,-0.8283774 0.67153257,-1.49990997 1.49990997,-1.49990997 0.8283774,0 1.49991,0.67153257 1.49991,1.49990997 z" />
	</g>
	<g
		id="_175686208"
		style="fill-opacity:1;fill:url(#linearGradient3033)">
		<path
			style="fill:url(#linearGradient3033);fill-opacity:1"
			inkscape:connector-curvature="0"
			d="M 1.18507,2.11683 C 1.240243,1.991728 1.301084,1.881844 1.396372,1.78857 1.413052,1.772228 1.45543,1.750505 1.467655,1.758898 1.591546,1.843921 1.552304,1.818919 1.438411,2.010582 L 1.342535,2.171932 C 1.332595,2.188612 1.311634,2.208108 1.301993,2.204562 L 1.196707,2.166051 C 1.186957,2.162471 1.17714,2.134847 1.18507,2.11683 z"
			class="fil4"
			id="_174284504" />
		<path
			style="fill:url(#linearGradient3033);fill-opacity:1"
			inkscape:connector-curvature="0"
			d="M 1.49433,1.67122 C 1.555883,1.556703 1.622016,1.457441 1.720726,1.377942 1.737994,1.364024 1.780675,1.3477 1.792099,1.357109 1.907667,1.452504 1.870938,1.424151 1.74801,1.596407 L 1.644524,1.741433 C 1.633796,1.756438 1.612144,1.77294 1.602966,1.768467 L 1.502652,1.719905 C 1.493352,1.715395 1.48549,1.68772 1.494332,1.671218 z"
			class="fil4"
			id="_133929544" />
		<path
			style="fill:url(#linearGradient3033);fill-opacity:1"
			inkscape:connector-curvature="0"
			d="M 1.01647,1.93666 C 1.062786,1.817831 1.114966,1.713739 1.199829,1.626363 1.214674,1.611055 1.253202,1.591149 1.264911,1.599489 1.383455,1.683871 1.345978,1.659011 1.247749,1.840373 L 1.165025,1.99308 C 1.156475,2.008887 1.137759,2.027118 1.128653,2.0235 L 1.029248,1.984169 C 1.020038,1.980499 1.009823,1.953767 1.01647,1.936659 z"
			class="fil4"
			id="_174257328" />
		<path
			style="fill:url(#linearGradient3033);fill-opacity:1"
			inkscape:connector-curvature="0"
			d="M 1.32726,1.50524 C 1.393643,1.40612 1.461683,1.320616 1.553745,1.253645 1.569873,1.241919 1.60719,1.228892 1.615263,1.237571 1.697025,1.325606 1.670775,1.299356 1.545993,1.447465 L 1.440921,1.572157 C 1.43005,1.585059 1.409984,1.598924 1.403052,1.594683 L 1.327349,1.548509 c -0.007,-0.00429 -0.00964,-0.028995 -8.91e-5,-0.043269 z"
			class="fil4"
			id="_172849200" />
	</g>
</svg>
