<?xml version="1.0" encoding="UTF-8" standalone="no"?>
<svg
	xmlns:dc="http://purl.org/dc/elements/1.1/"
	xmlns:cc="http://creativecommons.org/ns#"
	xmlns:rdf="http://www.w3.org/1999/02/22-rdf-syntax-ns#"
	xmlns:svg="http://www.w3.org/2000/svg"
	xmlns="http://www.w3.org/2000/svg"
	xmlns:xlink="http://www.w3.org/1999/xlink"
	xmlns:sodipodi="http://sodipodi.sourceforge.net/DTD/sodipodi-0.dtd"
	xmlns:inkscape="http://www.inkscape.org/namespaces/inkscape"
	version="1.1"
	id="Layer_1"
	x="0px"
	y="0px"
	width="40px"
	height="40px"
	viewBox="12.331 13.166 40 40"
	enable-background="new 12.331 13.166 40 40"
	xml:space="preserve"
	inkscape:version="0.48.3.1 r9886"
	sodipodi:docname="2325.svg">
	<metadata
		id="metadata54">
		<rdf:RDF>
			<cc:Work
				rdf:about="">
				<dc:format>image/svg+xml</dc:format>
				<dc:type
					rdf:resource="http://purl.org/dc/dcmitype/StillImage" />
			</cc:Work>
		</rdf:RDF>
	</metadata>
	<linearGradient
		inkscape:collect="always"
		xlink:href="#SVGID_1_"
		id="linearGradient3093"
		gradientUnits="userSpaceOnUse"
		gradientTransform="matrix(1,0,0,-1,-0.9624,51.9346)"
		x1="33.293"
		y1="-1.6147"
		x2="33.293"
		y2="39.2813" />
	<linearGradient
		inkscape:collect="always"
		xlink:href="#SVGID_2_"
		id="linearGradient3095"
		gradientUnits="userSpaceOnUse"
		gradientTransform="matrix(1,0,0,-1,-0.9624,51.9346)"
		x1="33.293"
		y1="-0.7476"
		x2="33.293"
		y2="38.3164" />
	<linearGradient
		inkscape:collect="always"
		xlink:href="#SVGID_3_"
		id="linearGradient3097"
		gradientUnits="userSpaceOnUse"
		gradientTransform="matrix(1,0,0,-1,-0.9624,51.9346)"
		x1="33.293"
		y1="0.3159"
		x2="33.293"
		y2="37.4499" />
	<linearGradient
		inkscape:collect="always"
		xlink:href="#SVGID_4_"
		id="linearGradient3099"
		gradientUnits="userSpaceOnUse"
		gradientTransform="matrix(1,0,0,-1,-0.9624,51.9346)"
		x1="33.293"
		y1="0.2163"
		x2="33.293"
		y2="19.6023" />
	<linearGradient
		gradientTransform="matrix(1,0,0,-1,-0.9624,51.9346)"
		y2="37.351799"
		x2="33.2939"
		y1="0.27149999"
		x1="33.2939"
		gradientUnits="userSpaceOnUse"
		id="SVGID_5_">
		<stop
			id="stop44"
			style="stop-color:#c9faff"
			offset="0" />
		<stop
			id="stop46"
			style="stop-color:#ffffff"
			offset="1" />
	</linearGradient>
	<linearGradient
		inkscape:collect="always"
		xlink:href="#SVGID_5_"
		id="linearGradient3107"
		gradientUnits="userSpaceOnUse"
		gradientTransform="matrix(1,0,0,-1,-0.9624,51.9346)"
		x1="33.2939"
		y1="0.2715"
		x2="33.2939"
		y2="37.3518" />
	<sodipodi:namedview
		pagecolor="#ffffff"
		bordercolor="#666666"
		borderopacity="1"
		objecttolerance="10"
		gridtolerance="10"
		guidetolerance="10"
		inkscape:pageopacity="0"
		inkscape:pageshadow="2"
		inkscape:window-width="1440"
		inkscape:window-height="848"
		id="namedview50"
		showgrid="false"
		inkscape:zoom="11.8"
		inkscape:cx="12.694927"
		inkscape:cy="12.886021"
		inkscape:window-x="-8"
		inkscape:window-y="-8"
		inkscape:window-maximized="1"
		inkscape:current-layer="Layer_1" />
	<path
		display="none"
		opacity="0.3"
		fill="#FFFFFF"
		enable-background="new    "
		d="M-25.231-31.608  c4.676,8.096,1.9,18.448-6.195,23.122c-8.094,4.675-18.447,1.9-23.122-6.195"
		id="path3" />
	<g
		id="g7">
		<linearGradient
			gradientTransform="matrix(1,0,0,-1,-0.9624,51.9346)"
			y2="39.2813"
			x2="33.292999"
			y1="-1.6147"
			x1="33.292999"
			gradientUnits="userSpaceOnUse"
			id="SVGID_1_">
			<stop
				id="stop10"
				style="stop-color:#004A78"
				offset="0" />
			<stop
				id="stop12"
				style="stop-color:#9CF5E9"
				offset="1" />
		</linearGradient>
		<path
			id="path14"
			d="m 32.33,13.166 c -11.045,0 -20,8.954 -20,20 0,11.045 8.955,20 20,20 11.047,0 20,-8.955 20,-20 0,-11.046 -8.953,-20 -20,-20 z"
			style="fill:url(#linearGradient3093)"
			inkscape:connector-curvature="0" />
		<linearGradient
			gradientTransform="matrix(1,0,0,-1,-0.9624,51.9346)"
			y2="38.316399"
			x2="33.292999"
			y1="-0.74760002"
			x1="33.292999"
			gradientUnits="userSpaceOnUse"
			id="SVGID_2_">
			<stop
				id="stop17"
				style="stop-color:#9CF5E9"
				offset="0" />
			<stop
				id="stop19"
				style="stop-color:#004A78"
				offset="1" />
		</linearGradient>
		<path
			id="path21"
			d="m 32.33,14.166 c -10.492,0 -19,8.507 -19,19 0,10.492 8.508,19 19,19 10.494,0 19,-8.508 19,-19 0,-10.494 -8.506,-19 -19,-19 z"
			style="fill:url(#linearGradient3095)"
			inkscape:connector-curvature="0" />
		<linearGradient
			gradientTransform="matrix(1,0,0,-1,-0.9624,51.9346)"
			y2="37.449902"
			x2="33.292999"
			y1="0.3159"
			x1="33.292999"
			gradientUnits="userSpaceOnUse"
			id="SVGID_3_">
			<stop
				id="stop24"
				style="stop-color:#005E94"
				offset="0" />
			<stop
				id="stop26"
				style="stop-color:#005E94"
				offset="0.37" />
			<stop
				id="stop28"
				style="stop-color:#67F7E4"
				offset="1" />
		</linearGradient>
		<path
			id="path30"
			d="m 32.33,15.166 c -9.939,0 -18,8.059 -18,18 0,9.941 8.061,18 18,18 9.941,0 18,-8.059 18,-18 0,-9.942 -8.059,-18 -18,-18 z"
			style="fill:url(#linearGradient3097)"
			inkscape:connector-curvature="0" />
		<linearGradient
			gradientTransform="matrix(1,0,0,-1,-0.9624,51.9346)"
			y2="19.602301"
			x2="33.292999"
			y1="0.2163"
			x1="33.292999"
			gradientUnits="userSpaceOnUse"
			id="SVGID_4_">
			<stop
				id="stop33"
				style="stop-color:#00BDBD"
				offset="0" />
			<stop
				id="stop35"
				style="stop-color:#004A78"
				offset="1" />
		</linearGradient>
		<path
			id="path37"
			d="m 14.33,33.166 c 0,9.941 8.061,18 18,18 9.941,0 18,-8.059 18,-18 -12,4.002 -24,4.002 -36,0 z"
			style="fill:url(#linearGradient3099)"
			inkscape:connector-curvature="0" />
	</g>
	<g
		id="dark"
		inkscape:label="#g3900">
		<path
			style="fill:#006588"
			inkscape:connector-curvature="0"
			d="m 44.332,42.164 c 0.09,0.639 -0.152,1 -1,1 h -10 -10.002 c -0.846,0 -1.09,-0.361 -1,-1 l 0.926,-6.477 c 0.041,-0.287 0.346,-0.563 0.633,-0.602 l 3.896,-0.533 c 0.313,-0.043 0.611,-0.354 0.682,-0.66 l 0.863,-3.729 h 2 v 2 h 4 v -2 h 2 l 0.865,3.729 c 0.07,0.309 0.369,0.617 0.682,0.66 l 3.896,0.533 c 0.287,0.039 0.592,0.314 0.633,0.602 l 0.924,6.477 h 0.002 z M 46.818,28.568 C 46.66,28.076 46.56,27.767 46.281,27.566 46,27.363 44.869,27.111 43.898,26.961 40.425,26.43 36.878,26.162 33.332,26.162 c -3.546,0 -7.094,0.268 -10.566,0.799 -0.971,0.148 -2.102,0.402 -2.381,0.605 -0.281,0.201 -0.381,0.51 -0.539,1.002 l -0.516,1.596 v 1 l 0.85,2.547 c 0.076,0.229 0.375,0.418 0.611,0.381 l 5.459,-0.859 c 0.246,-0.039 0.473,-0.289 0.525,-0.531 l 0.555,-2.537 v -1 h 12.002 v 1 l 0.555,2.535 c 0.053,0.244 0.279,0.492 0.525,0.531 l 5.459,0.859 c 0.238,0.037 0.537,-0.152 0.613,-0.381 l 0.848,-2.547 v -1 l -0.514,-1.596 v 0.002 z"
			id="path39" />
	</g>
	<path
		id="path41"
		d="m 30.332,40.639 c 0,0.291 -0.236,0.525 -0.525,0.525 h -0.949 c -0.289,0 -0.525,-0.234 -0.525,-0.525 v -0.947 c 0,-0.289 0.236,-0.525 0.525,-0.525 h 0.949 c 0.289,0 0.525,0.236 0.525,0.525 v 0.947 z m 0,-3 c 0,0.291 -0.236,0.525 -0.525,0.525 h -0.949 c -0.289,0 -0.525,-0.234 -0.525,-0.525 v -0.947 c 0,-0.289 0.236,-0.525 0.525,-0.525 h 0.949 c 0.289,0 0.525,0.236 0.525,0.525 v 0.947 z m 0,-3 c 0,0.289 -0.236,0.525 -0.525,0.525 h -0.949 c -0.289,0 -0.525,-0.236 -0.525,-0.525 v -0.947 c 0,-0.289 0.236,-0.525 0.525,-0.525 h 0.949 c 0.289,0 0.525,0.236 0.525,0.525 v 0.947 z m 3,6 c 0,0.291 -0.236,0.525 -0.525,0.525 h -0.949 c -0.289,0 -0.525,-0.234 -0.525,-0.525 v -0.947 c 0,-0.289 0.236,-0.525 0.525,-0.525 h 0.949 c 0.289,0 0.525,0.236 0.525,0.525 v 0.947 z m 0,-3 c 0,0.291 -0.236,0.525 -0.525,0.525 h -0.949 c -0.289,0 -0.525,-0.234 -0.525,-0.525 v -0.947 c 0,-0.289 0.236,-0.525 0.525,-0.525 h 0.949 c 0.289,0 0.525,0.236 0.525,0.525 v 0.947 z m 0,-3 c 0,0.289 -0.236,0.525 -0.525,0.525 h -0.949 c -0.289,0 -0.525,-0.236 -0.525,-0.525 v -0.947 c 0,-0.289 0.236,-0.525 0.525,-0.525 h 0.949 c 0.289,0 0.525,0.236 0.525,0.525 v 0.947 z m 3,6 c 0,0.291 -0.236,0.525 -0.525,0.525 H 34.86 c -0.291,0 -0.527,-0.234 -0.527,-0.525 v -0.947 c 0,-0.289 0.236,-0.525 0.527,-0.525 h 0.947 c 0.291,0 0.525,0.236 0.525,0.525 v 0.947 z m 0,-3 c 0,0.291 -0.236,0.525 -0.525,0.525 H 34.86 c -0.291,0 -0.527,-0.234 -0.527,-0.525 v -0.947 c 0,-0.289 0.236,-0.525 0.527,-0.525 h 0.947 c 0.291,0 0.525,0.236 0.525,0.525 v 0.947 z m 0,-3 c 0,0.289 -0.236,0.525 -0.525,0.525 H 34.86 c -0.291,0 -0.527,-0.236 -0.527,-0.525 v -0.947 c 0,-0.289 0.236,-0.525 0.527,-0.525 h 0.947 c 0.291,0 0.525,0.236 0.525,0.525 v 0.947 z"
		inkscape:connector-curvature="0"
		style="fill:#006588" />
	<g
		id="hmigradengt"
		inkscape:label="#g3897">
		<path
			inkscape:connector-curvature="0"
			style="fill:url(#linearGradient3107)"
			d="m 42.408,34.688 c -0.041,-0.287 -0.346,-0.563 -0.633,-0.602 l -3.896,-0.533 c -0.313,-0.043 -0.611,-0.354 -0.682,-0.66 l -0.865,-3.729 h -2 v 2 h -2 -2 v -2 h -2 l -0.863,3.729 c -0.07,0.309 -0.369,0.617 -0.682,0.66 l -3.896,0.533 c -0.287,0.039 -0.592,0.314 -0.633,0.602 l -0.926,6.477 c -0.09,0.639 0.154,1 1,1 h 10 10.002 c 0.846,0 1.09,-0.361 1,-1 l -0.926,-6.477 0,0 z m -12.076,5.951 c 0,0.291 -0.236,0.525 -0.525,0.525 h -0.949 c -0.289,0 -0.525,-0.234 -0.525,-0.525 v -0.947 c 0,-0.289 0.236,-0.525 0.525,-0.525 h 0.949 c 0.289,0 0.525,0.236 0.525,0.525 v 0.947 z m 0,-3 c 0,0.291 -0.236,0.525 -0.525,0.525 h -0.949 c -0.289,0 -0.525,-0.234 -0.525,-0.525 v -0.947 c 0,-0.289 0.236,-0.525 0.525,-0.525 h 0.949 c 0.289,0 0.525,0.236 0.525,0.525 v 0.947 z m 0,-3 c 0,0.289 -0.236,0.525 -0.525,0.525 h -0.949 c -0.289,0 -0.525,-0.236 -0.525,-0.525 v -0.947 c 0,-0.289 0.236,-0.525 0.525,-0.525 h 0.949 c 0.289,0 0.525,0.236 0.525,0.525 v 0.947 z m 3,6 c 0,0.291 -0.236,0.525 -0.525,0.525 h -0.949 c -0.289,0 -0.525,-0.234 -0.525,-0.525 v -0.947 c 0,-0.289 0.236,-0.525 0.525,-0.525 h 0.949 c 0.289,0 0.525,0.236 0.525,0.525 v 0.947 z m 0,-3 c 0,0.291 -0.236,0.525 -0.525,0.525 h -0.949 c -0.289,0 -0.525,-0.234 -0.525,-0.525 v -0.947 c 0,-0.289 0.236,-0.525 0.525,-0.525 h 0.949 c 0.289,0 0.525,0.236 0.525,0.525 v 0.947 z m 0,-3 c 0,0.289 -0.236,0.525 -0.525,0.525 h -0.949 c -0.289,0 -0.525,-0.236 -0.525,-0.525 v -0.947 c 0,-0.289 0.236,-0.525 0.525,-0.525 h 0.949 c 0.289,0 0.525,0.236 0.525,0.525 v 0.947 z m 3,6 c 0,0.291 -0.236,0.525 -0.525,0.525 H 34.86 c -0.291,0 -0.527,-0.234 -0.527,-0.525 v -0.947 c 0,-0.289 0.236,-0.525 0.527,-0.525 h 0.947 c 0.291,0 0.525,0.236 0.525,0.525 v 0.947 z m 0,-3 c 0,0.291 -0.236,0.525 -0.525,0.525 H 34.86 c -0.291,0 -0.527,-0.234 -0.527,-0.525 v -0.947 c 0,-0.289 0.236,-0.525 0.527,-0.525 h 0.947 c 0.291,0 0.525,0.236 0.525,0.525 v 0.947 z m 0,-3 c 0,0.289 -0.236,0.525 -0.525,0.525 H 34.86 c -0.291,0 -0.527,-0.236 -0.527,-0.525 v -0.947 c 0,-0.289 0.236,-0.525 0.527,-0.525 h 0.947 c 0.291,0 0.525,0.236 0.525,0.525 v 0.947 z m 10,-5.475 v 1 l -0.848,2.547 c -0.076,0.229 -0.375,0.418 -0.613,0.381 l -5.459,-0.859 c -0.246,-0.039 -0.473,-0.289 -0.525,-0.531 l -0.555,-2.537 v -1 h -6 -6 v 1 l -0.555,2.537 c -0.053,0.242 -0.281,0.492 -0.525,0.531 l -5.461,0.859 C 19.555,33.129 19.256,32.94 19.182,32.711 L 18.33,30.164 v -1 l 0.516,-1.596 c 0.156,-0.492 0.256,-0.801 0.537,-1.002 0.281,-0.203 1.412,-0.455 2.383,-0.605 3.473,-0.531 7.018,-0.799 10.564,-0.799 3.546,0 7.096,0.268 10.568,0.799 0.971,0.148 2.1,0.402 2.381,0.605 0.281,0.201 0.381,0.51 0.539,1.002 l 0.514,1.596 0,0 z"
			id="path48" />
	</g>
</svg>
