<?xml version="1.0" encoding="UTF-8" standalone="no"?>
<svg
	xmlns:dc="http://purl.org/dc/elements/1.1/"
	xmlns:cc="http://creativecommons.org/ns#"
	xmlns:rdf="http://www.w3.org/1999/02/22-rdf-syntax-ns#"
	xmlns:svg="http://www.w3.org/2000/svg"
	xmlns="http://www.w3.org/2000/svg"
	xmlns:xlink="http://www.w3.org/1999/xlink"
	xmlns:sodipodi="http://sodipodi.sourceforge.net/DTD/sodipodi-0.dtd"
	xmlns:inkscape="http://www.inkscape.org/namespaces/inkscape"
	version="1.1"
	id="Layer_1"
	x="0px"
	y="0px"
	width="40px"
	height="40px"
	viewBox="10.498 12.504 40 40"
	enable-background="new 10.498 12.504 40 40"
	xml:space="preserve"
	inkscape:version="0.48.3.1 r9886"
	sodipodi:docname="2313.svg">
	<metadata
		id="metadata52">
		<rdf:RDF>
			<cc:Work
				rdf:about="">
				<dc:format>image/svg+xml</dc:format>
				<dc:type
					rdf:resource="http://purl.org/dc/dcmitype/StillImage" />
			</cc:Work>
		</rdf:RDF>
	</metadata>
	<linearGradient
		gradientTransform="matrix(1,0,0,-1,-0.9624,51.9346)"
		y2="38.0158"
		x2="30.961901"
		y1="0.9321"
		x1="30.961901"
		gradientUnits="userSpaceOnUse"
		id="SVGID_5_">
		<stop
			id="stop42"
			style="stop-color:#c9faff"
			offset="0" />
		<stop
			id="stop44"
			style="stop-color:#ffffff"
			offset="1" />
	</linearGradient>
	<linearGradient
		inkscape:collect="always"
		xlink:href="#SVGID_5_"
		id="linearGradient3033"
		gradientUnits="userSpaceOnUse"
		gradientTransform="matrix(1,0,0,-1,-0.9624,51.9346)"
		x1="30.961901"
		y1="0.9321"
		x2="30.961901"
		y2="38.0158" />
	<sodipodi:namedview
		pagecolor="#ffffff"
		bordercolor="#666666"
		borderopacity="1"
		objecttolerance="10"
		gridtolerance="10"
		guidetolerance="10"
		inkscape:pageopacity="0"
		inkscape:pageshadow="2"
		inkscape:window-width="1440"
		inkscape:window-height="848"
		id="namedview48"
		showgrid="false"
		inkscape:zoom="11.8"
		inkscape:cx="14.419571"
		inkscape:cy="16.880157"
		inkscape:window-x="-8"
		inkscape:window-y="-8"
		inkscape:window-maximized="1"
		inkscape:current-layer="Layer_1" />
	<path
		display="none"
		opacity="0.3"
		fill="#FFFFFF"
		enable-background="new    "
		d="M-25.231-31.608  c4.676,8.096,1.9,18.448-6.195,23.122c-8.094,4.675-18.447,1.9-23.122-6.195"
		id="path3" />
	<g
		id="g7">
		<linearGradient
			gradientTransform="matrix(1,0,0,-1,-0.9624,51.9346)"
			y2="39.942402"
			x2="31.460899"
			y1="-0.9526"
			x1="31.460899"
			gradientUnits="userSpaceOnUse"
			id="SVGID_1_">
			<stop
				id="stop10"
				style="stop-color:#004A78"
				offset="0" />
			<stop
				id="stop12"
				style="stop-color:#9CF5E9"
				offset="1" />
		</linearGradient>
		<path
			inkscape:connector-curvature="0"
			style="fill:url(#SVGID_1_)"
			id="path14"
			d="m 30.498,12.504 c -11.045,0 -20,8.955 -20,20 0,11.047 8.955,20 20,20 11.045,0 20,-8.953 20,-20 0,-11.045 -8.955,-20 -20,-20 z" />
		<linearGradient
			gradientTransform="matrix(1,0,0,-1,-0.9624,51.9346)"
			y2="38.977501"
			x2="31.460899"
			y1="-0.0854"
			x1="31.460899"
			gradientUnits="userSpaceOnUse"
			id="SVGID_2_">
			<stop
				id="stop17"
				style="stop-color:#9CF5E9"
				offset="0" />
			<stop
				id="stop19"
				style="stop-color:#004A78"
				offset="1" />
		</linearGradient>
		<path
			inkscape:connector-curvature="0"
			style="fill:url(#SVGID_2_)"
			id="path21"
			d="m 30.498,13.504 c -10.494,0 -19,8.508 -19,19 0,10.494 8.506,19 19,19 10.494,0 19,-8.506 19,-19 0,-10.492 -8.506,-19 -19,-19 z" />
		<linearGradient
			gradientTransform="matrix(1,0,0,-1,-0.9624,51.9346)"
			y2="38.111"
			x2="31.460899"
			y1="0.97799999"
			x1="31.460899"
			gradientUnits="userSpaceOnUse"
			id="SVGID_3_">
			<stop
				id="stop24"
				style="stop-color:#005E94"
				offset="0" />
			<stop
				id="stop26"
				style="stop-color:#005E94"
				offset="0.37" />
			<stop
				id="stop28"
				style="stop-color:#67F7E4"
				offset="1" />
		</linearGradient>
		<path
			inkscape:connector-curvature="0"
			style="fill:url(#SVGID_3_)"
			id="path30"
			d="m 30.498,14.504 c -9.941,0 -18,8.06 -18,18 0,9.941 8.059,18 18,18 9.941,0 18,-8.059 18,-18 0,-9.941 -8.059,-18 -18,-18 z" />
		<linearGradient
			gradientTransform="matrix(1,0,0,-1,-0.9624,51.9346)"
			y2="20.2644"
			x2="31.460899"
			y1="0.87840003"
			x1="31.460899"
			gradientUnits="userSpaceOnUse"
			id="SVGID_4_">
			<stop
				id="stop33"
				style="stop-color:#00BDBD"
				offset="0" />
			<stop
				id="stop35"
				style="stop-color:#004A78"
				offset="1" />
		</linearGradient>
		<path
			inkscape:connector-curvature="0"
			style="fill:url(#SVGID_4_)"
			id="path37"
			d="m 12.498,32.504 c 0,9.941 8.059,18 18,18 9.941,0 18,-8.059 18,-18 -12,4.004 -24,4.004 -36,0 z" />
	</g>
	<g
		id="dark"
		inkscape:label="#g3825">
		<path
			d="m 43.428,38.576 c -0.266,-0.101 -0.658,-0.048 -1.041,-0.113 -0.883,-0.153 -1.199,-0.92 -0.678,-1.66 0.225,-0.317 0.539,-0.559 0.654,-0.816 -0.369,-0.504 -0.824,-0.96 -1.328,-1.329 -0.258,0.115 -0.5,0.431 -0.816,0.654 -0.736,0.519 -1.498,0.196 -1.654,-0.692 -0.066,-0.384 -0.014,-0.777 -0.115,-1.041 -0.615,-0.096 -1.262,-0.096 -1.879,0 -0.1,0.264 -0.047,0.657 -0.115,1.041 -0.152,0.883 -0.918,1.198 -1.658,0.678 -0.318,-0.225 -0.559,-0.539 -0.816,-0.654 -0.51,0.373 -0.971,0.834 -1.344,1.345 0.113,0.259 0.43,0.499 0.652,0.815 0.521,0.742 0.207,1.507 -0.678,1.66 -0.383,0.066 -0.777,0.015 -1.041,0.115 -0.096,0.616 -0.096,1.262 0,1.879 0.264,0.102 0.658,0.049 1.041,0.114 0.891,0.155 1.211,0.918 0.693,1.651 -0.223,0.318 -0.539,0.561 -0.654,0.818 0.369,0.504 0.826,0.959 1.33,1.328 0.258,-0.115 0.5,-0.431 0.816,-0.654 0.74,-0.521 1.506,-0.205 1.66,0.679 0.066,0.383 0.014,0.776 0.115,1.041 0.617,0.096 1.262,0.095 1.877,0 0.104,-0.265 0.049,-0.658 0.115,-1.041 0.156,-0.894 0.92,-1.21 1.654,-0.693 0.316,0.224 0.559,0.539 0.816,0.654 0.5,-0.367 0.947,-0.813 1.314,-1.313 -0.117,-0.259 -0.432,-0.5 -0.656,-0.816 -0.516,-0.733 -0.199,-1.498 0.693,-1.652 0.383,-0.066 0.775,-0.016 1.041,-0.115 0.096,-0.617 0.096,-1.263 0,-1.879 v -0.004 z m -3.807,3.053 c -1.168,1.17 -3.076,1.17 -4.246,0 -1.168,-1.17 -1.168,-3.076 0,-4.246 1.17,-1.17 3.078,-1.17 4.246,0 1.17,1.17 1.17,3.076 0,4.246 z m -7.406,-5.981 c -0.418,-1.124 0.303,-1.844 1.426,-1.426 0.375,0.14 0.709,0.435 1.113,0.619 0.4,-0.543 0.73,-1.121 0.994,-1.723 -0.363,-0.259 -0.785,-0.398 -1.092,-0.652 -0.924,-0.766 -0.662,-1.748 0.521,-1.947 0.391,-0.064 0.824,0.021 1.266,-0.02 0.074,-0.662 0.074,-1.328 0,-1.99 -0.441,-0.041 -0.875,0.047 -1.266,-0.02 -1.184,-0.199 -1.447,-1.182 -0.521,-1.945 0.307,-0.256 0.729,-0.396 1.092,-0.654 -0.264,-0.602 -0.594,-1.18 -0.994,-1.723 -0.404,0.186 -0.738,0.479 -1.113,0.619 -1.125,0.418 -1.844,-0.301 -1.426,-1.427 0.139,-0.373 0.436,-0.706 0.621,-1.112 -0.543,-0.398 -1.123,-0.729 -1.725,-0.992 -0.258,0.363 -0.398,0.785 -0.652,1.092 -0.766,0.925 -1.748,0.66 -1.947,-0.521 -0.066,-0.392 0.021,-0.824 -0.02,-1.267 -0.66,-0.073 -1.328,-0.072 -1.99,0 -0.041,0.44 0.047,0.875 -0.02,1.267 -0.199,1.184 -1.182,1.446 -1.945,0.521 -0.254,-0.307 -0.395,-0.729 -0.652,-1.092 -0.604,0.263 -1.182,0.594 -1.725,0.992 0.186,0.406 0.48,0.739 0.619,1.113 0.418,1.125 -0.301,1.844 -1.424,1.426 -0.375,-0.14 -0.707,-0.435 -1.113,-0.619 -0.4,0.543 -0.73,1.121 -0.994,1.724 0.363,0.258 0.785,0.397 1.092,0.651 0.926,0.767 0.662,1.748 -0.521,1.947 -0.391,0.066 -0.822,-0.021 -1.264,0.02 -0.074,0.662 -0.074,1.328 0,1.99 0.441,0.041 0.875,-0.047 1.266,0.02 1.182,0.199 1.445,1.184 0.521,1.947 -0.309,0.254 -0.729,0.396 -1.092,0.652 0.262,0.602 0.594,1.18 0.992,1.725 0.406,-0.188 0.74,-0.481 1.113,-0.621 1.125,-0.418 1.844,0.302 1.426,1.426 -0.139,0.374 -0.434,0.708 -0.621,1.113 0.543,0.398 1.123,0.729 1.725,0.992 0.258,-0.362 0.398,-0.783 0.652,-1.092 0.766,-0.924 1.746,-0.66 1.947,0.521 0.066,0.393 -0.021,0.824 0.02,1.268 0.662,0.071 1.328,0.071 1.99,0 0.041,-0.443 -0.047,-0.875 0.02,-1.268 0.199,-1.184 1.182,-1.446 1.945,-0.521 0.254,0.309 0.396,0.729 0.654,1.092 0.602,-0.263 1.18,-0.594 1.723,-0.992 -0.186,-0.406 -0.48,-0.738 -0.619,-1.113 H 32.215 z M 23.252,33.75 c -2.338,-2.338 -2.338,-6.152 0,-8.492 2.338,-2.338 6.154,-2.338 8.492,0 2.338,2.34 2.338,6.154 0,8.492 -2.338,2.34 -6.154,2.34 -8.492,0 z"
			id="path39"
			inkscape:connector-curvature="0"
			style="fill:#006588" />
	</g>
	<g
		id="hmigradengt"
		inkscape:label="#g3822">
		<path
			d="m 42.428,37.576 c -0.266,-0.101 -0.658,-0.048 -1.041,-0.113 -0.883,-0.153 -1.199,-0.92 -0.678,-1.66 0.225,-0.317 0.539,-0.559 0.654,-0.816 -0.369,-0.504 -0.824,-0.96 -1.328,-1.329 -0.258,0.115 -0.5,0.431 -0.816,0.654 -0.736,0.519 -1.498,0.196 -1.654,-0.692 -0.066,-0.384 -0.014,-0.777 -0.115,-1.041 -0.615,-0.096 -1.262,-0.096 -1.879,0 -0.1,0.264 -0.047,0.657 -0.115,1.041 -0.152,0.883 -0.918,1.198 -1.658,0.678 -0.318,-0.225 -0.559,-0.539 -0.816,-0.654 -0.51,0.373 -0.971,0.834 -1.344,1.345 0.113,0.259 0.43,0.499 0.652,0.815 0.521,0.742 0.207,1.507 -0.678,1.66 -0.383,0.066 -0.777,0.015 -1.041,0.115 -0.096,0.616 -0.096,1.262 0,1.879 0.264,0.102 0.658,0.049 1.041,0.114 0.891,0.155 1.211,0.918 0.693,1.651 -0.223,0.318 -0.539,0.561 -0.654,0.818 0.369,0.504 0.826,0.959 1.33,1.328 0.258,-0.115 0.5,-0.431 0.816,-0.654 0.74,-0.521 1.506,-0.205 1.66,0.679 0.066,0.383 0.014,0.776 0.115,1.041 0.617,0.096 1.262,0.095 1.877,0 0.104,-0.265 0.049,-0.658 0.115,-1.041 0.156,-0.894 0.92,-1.21 1.654,-0.693 0.316,0.224 0.559,0.539 0.816,0.654 0.5,-0.367 0.947,-0.813 1.314,-1.313 -0.117,-0.259 -0.432,-0.5 -0.656,-0.816 -0.516,-0.733 -0.199,-1.498 0.693,-1.652 0.383,-0.066 0.775,-0.016 1.041,-0.115 0.096,-0.617 0.096,-1.263 0,-1.879 v -0.004 z m -3.807,3.053 c -1.168,1.17 -3.076,1.17 -4.246,0 -1.168,-1.17 -1.168,-3.076 0,-4.246 1.17,-1.17 3.078,-1.17 4.246,0 1.17,1.17 1.17,3.076 0,4.246 z m -7.406,-5.981 c -0.418,-1.124 0.303,-1.844 1.426,-1.426 0.375,0.14 0.709,0.435 1.113,0.619 0.4,-0.543 0.73,-1.121 0.994,-1.723 -0.363,-0.259 -0.785,-0.398 -1.092,-0.652 -0.924,-0.766 -0.662,-1.748 0.521,-1.947 0.391,-0.064 0.824,0.021 1.266,-0.02 0.074,-0.662 0.074,-1.328 0,-1.99 -0.441,-0.041 -0.875,0.047 -1.266,-0.02 -1.184,-0.199 -1.447,-1.182 -0.521,-1.945 0.307,-0.256 0.729,-0.396 1.092,-0.654 -0.264,-0.602 -0.594,-1.18 -0.994,-1.723 -0.404,0.186 -0.738,0.479 -1.113,0.619 -1.125,0.418 -1.844,-0.301 -1.426,-1.427 0.139,-0.373 0.436,-0.706 0.621,-1.112 -0.543,-0.398 -1.123,-0.729 -1.725,-0.992 -0.258,0.363 -0.398,0.785 -0.652,1.092 -0.766,0.925 -1.748,0.66 -1.947,-0.521 -0.066,-0.392 0.021,-0.824 -0.02,-1.267 -0.66,-0.073 -1.328,-0.072 -1.99,0 -0.041,0.44 0.047,0.875 -0.02,1.267 -0.199,1.184 -1.182,1.446 -1.945,0.521 -0.254,-0.307 -0.395,-0.729 -0.652,-1.092 -0.604,0.263 -1.182,0.594 -1.725,0.992 0.186,0.406 0.48,0.739 0.619,1.113 0.418,1.125 -0.301,1.844 -1.424,1.426 -0.375,-0.14 -0.707,-0.435 -1.113,-0.619 -0.4,0.543 -0.73,1.121 -0.994,1.724 0.363,0.258 0.785,0.397 1.092,0.651 0.926,0.767 0.662,1.748 -0.521,1.947 -0.391,0.066 -0.822,-0.021 -1.264,0.02 -0.074,0.662 -0.074,1.328 0,1.99 0.441,0.041 0.875,-0.047 1.266,0.02 1.182,0.199 1.445,1.184 0.521,1.947 -0.309,0.254 -0.729,0.396 -1.092,0.652 0.262,0.602 0.594,1.18 0.992,1.725 0.406,-0.188 0.74,-0.481 1.113,-0.621 1.125,-0.418 1.844,0.302 1.426,1.426 -0.139,0.374 -0.434,0.708 -0.621,1.113 0.543,0.398 1.123,0.729 1.725,0.992 0.258,-0.362 0.398,-0.783 0.652,-1.092 0.766,-0.924 1.746,-0.66 1.947,0.521 0.066,0.393 -0.021,0.824 0.02,1.268 0.662,0.071 1.328,0.071 1.99,0 0.041,-0.443 -0.047,-0.875 0.02,-1.268 0.199,-1.184 1.182,-1.446 1.945,-0.521 0.254,0.309 0.396,0.729 0.654,1.092 0.602,-0.263 1.18,-0.594 1.723,-0.992 -0.186,-0.406 -0.48,-0.738 -0.619,-1.113 H 31.215 z M 22.252,32.75 c -2.338,-2.338 -2.338,-6.152 0,-8.492 2.338,-2.338 6.154,-2.338 8.492,0 2.338,2.34 2.338,6.154 0,8.492 -2.338,2.34 -6.154,2.34 -8.492,0 z"
			id="path46"
			style="fill:url(#linearGradient3033)"
			inkscape:connector-curvature="0" />
	</g>
</svg>
