<?xml version="1.0" encoding="UTF-8" standalone="no"?>
<svg
	xmlns:dc="http://purl.org/dc/elements/1.1/"
	xmlns:cc="http://creativecommons.org/ns#"
	xmlns:rdf="http://www.w3.org/1999/02/22-rdf-syntax-ns#"
	xmlns:svg="http://www.w3.org/2000/svg"
	xmlns="http://www.w3.org/2000/svg"
	xmlns:xlink="http://www.w3.org/1999/xlink"
	xmlns:sodipodi="http://sodipodi.sourceforge.net/DTD/sodipodi-0.dtd"
	xmlns:inkscape="http://www.inkscape.org/namespaces/inkscape"
	version="1.1"
	id="Layer_1"
	x="0px"
	y="0px"
	width="40px"
	height="40px"
	viewBox="12.168 13.329 40 40"
	enable-background="new 12.168 13.329 40 40"
	xml:space="preserve"
	inkscape:version="0.48.3.1 r9886"
	sodipodi:docname="2330.svg">
	<metadata
		id="metadata52">
		<rdf:RDF>
			<cc:Work
				rdf:about="">
				<dc:format>image/svg+xml</dc:format>
				<dc:type
					rdf:resource="http://purl.org/dc/dcmitype/StillImage" />
			</cc:Work>
		</rdf:RDF>
	</metadata>
	<linearGradient
		gradientTransform="matrix(1,0,0,-1,-0.9624,51.9346)"
		y2="37.1898"
		x2="33.1328"
		y1="0.106"
		x1="33.1328"
		gradientUnits="userSpaceOnUse"
		id="SVGID_5_">
		<stop
			id="stop42"
			style="stop-color:#c9faff"
			offset="0" />
		<stop
			id="stop44"
			style="stop-color:#ffffff"
			offset="1" />
	</linearGradient>
	<linearGradient
		inkscape:collect="always"
		xlink:href="#SVGID_5_"
		id="linearGradient3033"
		gradientUnits="userSpaceOnUse"
		gradientTransform="matrix(1,0,0,-1,-0.9624,51.9346)"
		x1="33.1328"
		y1="0.106"
		x2="33.1328"
		y2="37.1898" />
	<linearGradient
		inkscape:collect="always"
		xlink:href="#SVGID_5_"
		id="linearGradient3825"
		gradientUnits="userSpaceOnUse"
		gradientTransform="matrix(1,0,0,-1,-0.9624,51.9346)"
		x1="33.1328"
		y1="0.106"
		x2="33.1328"
		y2="37.1898" />
	<linearGradient
		inkscape:collect="always"
		xlink:href="#SVGID_5_"
		id="linearGradient3828"
		gradientUnits="userSpaceOnUse"
		gradientTransform="matrix(1,0,0,-1,-0.9624,51.9346)"
		x1="33.1328"
		y1="0.106"
		x2="33.1328"
		y2="37.1898" />
	<sodipodi:namedview
		pagecolor="#ffffff"
		bordercolor="#666666"
		borderopacity="1"
		objecttolerance="10"
		gridtolerance="10"
		guidetolerance="10"
		inkscape:pageopacity="0"
		inkscape:pageshadow="2"
		inkscape:window-width="1440"
		inkscape:window-height="848"
		id="namedview48"
		showgrid="false"
		inkscape:zoom="11.8"
		inkscape:cx="13.261177"
		inkscape:cy="2.5485729"
		inkscape:window-x="-8"
		inkscape:window-y="-8"
		inkscape:window-maximized="1"
		inkscape:current-layer="Layer_1" />
	<path
		display="none"
		opacity="0.3"
		fill="#FFFFFF"
		enable-background="new    "
		d="M-25.231-31.608  c4.676,8.096,1.9,18.448-6.195,23.122c-8.094,4.675-18.447,1.9-23.122-6.195"
		id="path3" />
	<g
		id="g7">
		<linearGradient
			gradientTransform="matrix(1,0,0,-1,-0.9624,51.9346)"
			y2="39.118198"
			x2="33.130901"
			y1="-1.7778"
			x1="33.130901"
			gradientUnits="userSpaceOnUse"
			id="SVGID_1_">
			<stop
				id="stop10"
				style="stop-color:#004A78"
				offset="0" />
			<stop
				id="stop12"
				style="stop-color:#9CF5E9"
				offset="1" />
		</linearGradient>
		<path
			inkscape:connector-curvature="0"
			style="fill:url(#SVGID_1_)"
			id="path14"
			d="m 32.168,13.329 c -11.045,0 -20,8.954 -20,20 0,11.046 8.955,20 20,20 11.046,0 20,-8.954 20,-20 0,-11.046 -8.954,-20 -20,-20 z" />
		<linearGradient
			gradientTransform="matrix(1,0,0,-1,-0.9624,51.9346)"
			y2="38.1534"
			x2="33.130901"
			y1="-0.91060001"
			x1="33.130901"
			gradientUnits="userSpaceOnUse"
			id="SVGID_2_">
			<stop
				id="stop17"
				style="stop-color:#9CF5E9"
				offset="0" />
			<stop
				id="stop19"
				style="stop-color:#004A78"
				offset="1" />
		</linearGradient>
		<path
			inkscape:connector-curvature="0"
			style="fill:url(#SVGID_2_)"
			id="path21"
			d="m 32.168,14.329 c -10.493,0 -19,8.507 -19,19 0,10.493 8.507,19 19,19 10.494,0 19,-8.507 19,-19 0,-10.493 -8.506,-19 -19,-19 z" />
		<linearGradient
			gradientTransform="matrix(1,0,0,-1,-0.9624,51.9346)"
			y2="37.2868"
			x2="33.130901"
			y1="0.15279999"
			x1="33.130901"
			gradientUnits="userSpaceOnUse"
			id="SVGID_3_">
			<stop
				id="stop24"
				style="stop-color:#005E94"
				offset="0" />
			<stop
				id="stop26"
				style="stop-color:#005E94"
				offset="0.37" />
			<stop
				id="stop28"
				style="stop-color:#67F7E4"
				offset="1" />
		</linearGradient>
		<path
			inkscape:connector-curvature="0"
			style="fill:url(#SVGID_3_)"
			id="path30"
			d="m 32.168,15.329 c -9.94,0 -18,8.059 -18,18 0,9.941 8.06,18 18,18 9.941,0 18,-8.059 18,-18 0,-9.941 -8.059,-18 -18,-18 z" />
		<linearGradient
			gradientTransform="matrix(1,0,0,-1,-0.9624,51.9346)"
			y2="19.439199"
			x2="33.130901"
			y1="0.053199999"
			x1="33.130901"
			gradientUnits="userSpaceOnUse"
			id="SVGID_4_">
			<stop
				id="stop33"
				style="stop-color:#00BDBD"
				offset="0" />
			<stop
				id="stop35"
				style="stop-color:#004A78"
				offset="1" />
		</linearGradient>
		<path
			inkscape:connector-curvature="0"
			style="fill:url(#SVGID_4_)"
			id="path37"
			d="m 14.168,33.329 c 0,9.941 8.06,18 18,18 9.941,0 18,-8.059 18,-18 -12,4.003 -24,4.003 -36,0 z" />
	</g>
	<g
		id="dark"
		inkscape:label="#g3833">
		<path
			d="m 42.17,28.327 -3,-3 -6.001,6 -6,-6 -3,3 6.001,6.001 -6.001,6 3,3 6,-6.001 6,6.001 3,-3 -6,-6 6.001,-6.001 0,0 z"
			id="path39"
			inkscape:connector-curvature="0"
			style="fill:#006588" />
	</g>
	<g
		id="hmigradengt"
		inkscape:label="#g3830">
		<path
			d="m 41.17,27.327 -3,-3 -6,6 -6,-6 -3,3 6.001,6.001 -6.001,6 3,3 6,-6.001 6,6.001 3,-3 -6,-6 6,-6.001 z"
			id="path46"
			style="fill:url(#linearGradient3828)"
			inkscape:connector-curvature="0" />
	</g>
</svg>
